<?xml version="1.0" encoding="UTF-8" standalone="no"?>
<svg
   version="1.1"
   preserveAspectRatio="none"
   x="0px"
   y="0px"
   width="210px"
   height="700px"
   viewBox="0 0 210 700"
   id="svg111"
   sodipodi:docname="bt-bonus.svg"
   xml:space="preserve"
   inkscape:version="1.4 (86a8ad7, 2024-10-11)"
   xmlns:inkscape="http://www.inkscape.org/namespaces/inkscape"
   xmlns:sodipodi="http://sodipodi.sourceforge.net/DTD/sodipodi-0.dtd"
   xmlns:xlink="http://www.w3.org/1999/xlink"
   xmlns="http://www.w3.org/2000/svg"
   xmlns:svg="http://www.w3.org/2000/svg"><sodipodi:namedview
     id="namedview111"
     pagecolor="#727272"
     bordercolor="#000000"
     borderopacity="0.25"
     inkscape:showpageshadow="2"
     inkscape:pageopacity="0.0"
     inkscape:pagecheckerboard="0"
     inkscape:deskcolor="#d1d1d1"
     inkscape:zoom="8.8342855"
     inkscape:cx="33.505822"
     inkscape:cy="106.79981"
     inkscape:window-width="1920"
     inkscape:window-height="991"
     inkscape:window-x="-9"
     inkscape:window-y="-9"
     inkscape:window-maximized="1"
     inkscape:current-layer="svg111" /><defs
     id="defs56"><g
       id="Layer0_0_FILL"><path
         fill="#FFFFFF"
         stroke="none"
         d=" M 48.8 29.95 Q 48.1 29.25 47.15 29.25 L 44.35 29.25 44.35 23.9 Q 44.35 20.5 41.65 17.75 38.8 14.85 34.9 14.85 30.95 14.85 28.1 17.75 25.4 20.5 25.4 23.9 L 25.4 29.25 22.8 29.25 Q 21.85 29.25 21.15 29.95 20.45 30.6 20.45 31.55 L 20.45 48.9 Q 20.45 49.85 21.15 50.5 21.85 51.2 22.8 51.2 L 47.15 51.2 Q 48.1 51.2 48.8 50.5 49.45 49.85 49.45 48.9 L 49.45 31.55 Q 49.45 30.6 48.8 29.95 M 40.9 23.9 L 40.9 29.25 28.9 29.25 28.9 23.9 Q 28.9 21.95 30.5 20.25 32.3 18.3 34.9 18.3 37.45 18.3 39.25 20.25 40.9 22 40.9 23.9 Z"
         id="path1" /></g><g
       id="Layer0_1_FILL"><path
         fill="#000000"
         fill-opacity="0.00392156862745098"
         stroke="none"
         d=" M 44.5 71.85 L 44.5 1.85 -25.5 1.85 -25.5 71.85 44.5 71.85 Z"
         id="path2" /></g><g
       id="Layer0_2_FILL"><path
         fill="#000000"
         fill-opacity="0.00392156862745098"
         stroke="none"
         d=" M 0 0 L 0 70 70 70 70 0 0 0 Z"
         id="path3" /></g><g
       id="Layer0_3_FILL"><path
         fill="#FFFFFF"
         stroke="none"
         d=" M 56.7 35.75 Q 57.05 35.1 56.7 34.3 52.95 27.55 47.2 23.85 41.55 20.15 35.2 20.15 28.9 20.15 23.15 23.95 17.45 27.7 13.6 34.3 12.95 35.1 13.6 35.75 17.4 42.5 23.1 46.25 28.75 49.95 35.2 49.95 41.5 49.95 47.2 46.15 52.85 42.4 56.7 35.75 M 40.2 40.1 Q 38.1 42.2 35.2 42.2 32.2 42.2 30.1 40.1 28.1 38.05 28.1 35.1 28.1 32.2 30.2 30.1 32.3 28 35.2 28 38.1 28 40.2 30.1 42.2 32.1 42.2 35.1 42.2 38.05 40.2 40.1 Z"
         id="path4" /></g><g
       id="Layer0_4_FILL"><path
         fill="#000000"
         fill-opacity="0.00392156862745098"
         stroke="none"
         d=" M 0 0 L 0 70 70 70 70 0 0 0 Z"
         id="path5" /></g><g
       id="Layer0_5_FILL"><path
         fill="#FFFFFF"
         stroke="none"
         d=" M 56.7 35.75 Q 57.05 35.1 56.7 34.3 52.95 27.55 47.2 23.85 41.55 20.15 35.2 20.15 28.9 20.15 23.15 23.95 17.45 27.7 13.6 34.3 12.95 35.1 13.6 35.75 17.4 42.5 23.1 46.25 28.75 49.95 35.2 49.95 41.5 49.95 47.2 46.15 52.85 42.4 56.7 35.75 M 40.2 40.1 Q 38.1 42.2 35.2 42.2 32.2 42.2 30.1 40.1 28.1 38.05 28.1 35.1 28.1 32.2 30.2 30.1 32.3 28 35.2 28 38.1 28 40.2 30.1 42.2 32.1 42.2 35.1 42.2 38.05 40.2 40.1 Z"
         id="path6" /></g><g
       id="Layer0_6_FILL"><path
         fill="#000000"
         fill-opacity="0.00392156862745098"
         stroke="none"
         d=" M 0 0 L 0 70 70 70 70 0 0 0 Z"
         id="path7" /></g><g
       id="Layer0_7_FILL"><path
         fill="#FFFFFF"
         stroke="none"
         d=" M 56.7 35.75 Q 57.05 35.1 56.7 34.3 52.95 27.55 47.2 23.85 41.55 20.15 35.2 20.15 28.9 20.15 23.15 23.95 17.45 27.7 13.6 34.3 12.95 35.1 13.6 35.75 17.4 42.5 23.1 46.25 28.75 49.95 35.2 49.95 41.5 49.95 47.2 46.15 52.85 42.4 56.7 35.75 M 40.2 40.1 Q 38.1 42.2 35.2 42.2 32.2 42.2 30.1 40.1 28.1 38.05 28.1 35.1 28.1 32.2 30.2 30.1 32.3 28 35.2 28 38.1 28 40.2 30.1 42.2 32.1 42.2 35.1 42.2 38.05 40.2 40.1 Z"
         id="path8" /></g><g
       id="Layer0_8_FILL"><path
         fill="#000000"
         fill-opacity="0.00392156862745098"
         stroke="none"
         d=" M 0 0 L 0 70 70 70 70 0 0 0 Z"
         id="path9" /></g><g
       id="Layer0_9_FILL"><path
         fill="#FFFFFF"
         stroke="none"
         d=" M 56.7 35.75 Q 57.05 35.1 56.7 34.3 52.95 27.55 47.2 23.85 41.55 20.15 35.2 20.15 28.9 20.15 23.15 23.95 17.45 27.7 13.6 34.3 12.95 35.1 13.6 35.75 17.4 42.5 23.1 46.25 28.75 49.95 35.2 49.95 41.5 49.95 47.2 46.15 52.85 42.4 56.7 35.75 M 40.2 40.1 Q 38.1 42.2 35.2 42.2 32.2 42.2 30.1 40.1 28.1 38.05 28.1 35.1 28.1 32.2 30.2 30.1 32.3 28 35.2 28 38.1 28 40.2 30.1 42.2 32.1 42.2 35.1 42.2 38.05 40.2 40.1 Z"
         id="path10" /></g><g
       id="Layer0_10_FILL"><path
         fill="#000000"
         fill-opacity="0.00392156862745098"
         stroke="none"
         d=" M 0 0 L 0 70 70 70 70 0 0 0 Z"
         id="path11" /></g><g
       id="Layer0_11_FILL"><path
         fill="#FFFFFF"
         stroke="none"
         d=" M 56.7 35.75 Q 57.05 35.1 56.7 34.3 52.95 27.55 47.2 23.85 41.55 20.15 35.2 20.15 28.9 20.15 23.15 23.95 17.45 27.7 13.6 34.3 12.95 35.1 13.6 35.75 17.4 42.5 23.1 46.25 28.75 49.95 35.2 49.95 41.5 49.95 47.2 46.15 52.85 42.4 56.7 35.75 M 40.2 40.1 Q 38.1 42.2 35.2 42.2 32.2 42.2 30.1 40.1 28.1 38.05 28.1 35.1 28.1 32.2 30.2 30.1 32.3 28 35.2 28 38.1 28 40.2 30.1 42.2 32.1 42.2 35.1 42.2 38.05 40.2 40.1 Z"
         id="path12" /></g><g
       id="Layer0_12_FILL"><path
         fill="#000000"
         fill-opacity="0.00392156862745098"
         stroke="none"
         d=" M 0 0 L 0 70 70 70 70 0 0 0 Z"
         id="path13" /></g><g
       id="Layer0_13_FILL"><path
         fill="#FFFFFF"
         stroke="none"
         d=" M 56.7 35.75 Q 57.05 35.1 56.7 34.3 52.95 27.55 47.2 23.85 41.55 20.15 35.2 20.15 28.9 20.15 23.15 23.95 17.45 27.7 13.6 34.3 12.95 35.1 13.6 35.75 17.4 42.5 23.1 46.25 28.75 49.95 35.2 49.95 41.5 49.95 47.2 46.15 52.85 42.4 56.7 35.75 M 40.2 40.1 Q 38.1 42.2 35.2 42.2 32.2 42.2 30.1 40.1 28.1 38.05 28.1 35.1 28.1 32.2 30.2 30.1 32.3 28 35.2 28 38.1 28 40.2 30.1 42.2 32.1 42.2 35.1 42.2 38.05 40.2 40.1 Z"
         id="path14" /></g><g
       id="Layer0_14_FILL"><path
         fill="#000000"
         fill-opacity="0.00392156862745098"
         stroke="none"
         d=" M 0 0 L 0 70 70 70 70 0 0 0 Z"
         id="path15" /></g><g
       id="Layer0_15_FILL"><path
         fill="#FFFFFF"
         stroke="none"
         d=" M 56.7 35.75 Q 57.05 35.1 56.7 34.3 52.95 27.55 47.2 23.85 41.55 20.15 35.2 20.15 28.9 20.15 23.15 23.95 17.45 27.7 13.6 34.3 12.95 35.1 13.6 35.75 17.4 42.5 23.1 46.25 28.75 49.95 35.2 49.95 41.5 49.95 47.2 46.15 52.85 42.4 56.7 35.75 M 40.2 40.1 Q 38.1 42.2 35.2 42.2 32.2 42.2 30.1 40.1 28.1 38.05 28.1 35.1 28.1 32.2 30.2 30.1 32.3 28 35.2 28 38.1 28 40.2 30.1 42.2 32.1 42.2 35.1 42.2 38.05 40.2 40.1 Z"
         id="path16" /></g><g
       id="Layer0_16_FILL"><path
         fill="#000000"
         fill-opacity="0.00392156862745098"
         stroke="none"
         d=" M 0 0 L 0 70 70 70 70 0 0 0 Z"
         id="path17" /></g><g
       id="Layer0_17_FILL"><path
         fill="#FFFFFF"
         stroke="none"
         d=" M 56.7 35.75 Q 57.05 35.1 56.7 34.3 52.95 27.55 47.2 23.85 41.55 20.15 35.2 20.15 28.9 20.15 23.15 23.95 17.45 27.7 13.6 34.3 12.95 35.1 13.6 35.75 17.4 42.5 23.1 46.25 28.75 49.95 35.2 49.95 41.5 49.95 47.2 46.15 52.85 42.4 56.7 35.75 M 40.2 40.1 Q 38.1 42.2 35.2 42.2 32.2 42.2 30.1 40.1 28.1 38.05 28.1 35.1 28.1 32.2 30.2 30.1 32.3 28 35.2 28 38.1 28 40.2 30.1 42.2 32.1 42.2 35.1 42.2 38.05 40.2 40.1 Z"
         id="path18" /></g><g
       id="Layer0_18_FILL"><path
         fill="#000000"
         fill-opacity="0.00392156862745098"
         stroke="none"
         d=" M 0 0 L 0 70 70 70 70 0 0 0 Z"
         id="path19" /></g><g
       id="Layer0_19_FILL"><path
         fill="#FFFFFF"
         stroke="none"
         d=" M 56.7 35.75 Q 57.05 35.1 56.7 34.3 52.95 27.55 47.2 23.85 41.55 20.15 35.2 20.15 28.9 20.15 23.15 23.95 17.45 27.7 13.6 34.3 12.95 35.1 13.6 35.75 17.4 42.5 23.1 46.25 28.75 49.95 35.2 49.95 41.5 49.95 47.2 46.15 52.85 42.4 56.7 35.75 M 40.2 40.1 Q 38.1 42.2 35.2 42.2 32.2 42.2 30.1 40.1 28.1 38.05 28.1 35.1 28.1 32.2 30.2 30.1 32.3 28 35.2 28 38.1 28 40.2 30.1 42.2 32.1 42.2 35.1 42.2 38.05 40.2 40.1 Z"
         id="path20" /></g><g
       id="Layer0_20_FILL"><path
         fill="#000000"
         fill-opacity="0.00392156862745098"
         stroke="none"
         d=" M 0 0 L 0 70 70 70 70 0 0 0 Z"
         id="path21" /></g><g
       id="Layer0_21_FILL"><path
         fill="#FFFFFF"
         stroke="none"
         d=" M 56.7 35.75 Q 57.05 35.1 56.7 34.3 52.95 27.55 47.2 23.85 41.55 20.15 35.2 20.15 28.9 20.15 23.15 23.95 17.45 27.7 13.6 34.3 12.95 35.1 13.6 35.75 17.4 42.5 23.1 46.25 28.75 49.95 35.2 49.95 41.5 49.95 47.2 46.15 52.85 42.4 56.7 35.75 M 40.2 40.1 Q 38.1 42.2 35.2 42.2 32.2 42.2 30.1 40.1 28.1 38.05 28.1 35.1 28.1 32.2 30.2 30.1 32.3 28 35.2 28 38.1 28 40.2 30.1 42.2 32.1 42.2 35.1 42.2 38.05 40.2 40.1 Z"
         id="path22" /></g><g
       id="Layer0_22_FILL"><path
         fill="#000000"
         fill-opacity="0.00392156862745098"
         stroke="none"
         d=" M 0 0 L 0 70 70 70 70 0 0 0 Z"
         id="path23" /></g><g
       id="Layer0_23_FILL"><path
         fill="#FFFFFF"
         stroke="none"
         d=" M 56.7 35.75 Q 57.05 35.1 56.7 34.3 52.95 27.55 47.2 23.85 41.55 20.15 35.2 20.15 28.9 20.15 23.15 23.95 17.45 27.7 13.6 34.3 12.95 35.1 13.6 35.75 17.4 42.5 23.1 46.25 28.75 49.95 35.2 49.95 41.5 49.95 47.2 46.15 52.85 42.4 56.7 35.75 M 40.2 40.1 Q 38.1 42.2 35.2 42.2 32.2 42.2 30.1 40.1 28.1 38.05 28.1 35.1 28.1 32.2 30.2 30.1 32.3 28 35.2 28 38.1 28 40.2 30.1 42.2 32.1 42.2 35.1 42.2 38.05 40.2 40.1 Z"
         id="path24" /></g><g
       id="Layer0_24_FILL"><path
         fill="#000000"
         fill-opacity="0.00392156862745098"
         stroke="none"
         d=" M 0 0 L 0 70 70 70 70 0 0 0 Z"
         id="path25" /></g><g
       id="Layer0_25_FILL"><path
         fill="#FFFFFF"
         stroke="none"
         d=" M 56.7 35.75 Q 57.05 35.1 56.7 34.3 52.95 27.55 47.2 23.85 41.55 20.15 35.2 20.15 28.9 20.15 23.15 23.95 17.45 27.7 13.6 34.3 12.95 35.1 13.6 35.75 17.4 42.5 23.1 46.25 28.75 49.95 35.2 49.95 41.5 49.95 47.2 46.15 52.85 42.4 56.7 35.75 M 40.2 40.1 Q 38.1 42.2 35.2 42.2 32.2 42.2 30.1 40.1 28.1 38.05 28.1 35.1 28.1 32.2 30.2 30.1 32.3 28 35.2 28 38.1 28 40.2 30.1 42.2 32.1 42.2 35.1 42.2 38.05 40.2 40.1 Z"
         id="path26" /></g><g
       id="Layer0_26_FILL"><path
         fill="#000000"
         fill-opacity="0.00392156862745098"
         stroke="none"
         d=" M 0 0 L 0 70 70 70 70 0 0 0 Z"
         id="path27" /></g><g
       id="Layer0_27_FILL"><path
         fill="#FFFFFF"
         stroke="none"
         d=" M 56.7 35.75 Q 57.05 35.1 56.7 34.3 52.95 27.55 47.2 23.85 41.55 20.15 35.2 20.15 28.9 20.15 23.15 23.95 17.45 27.7 13.6 34.3 12.95 35.1 13.6 35.75 17.4 42.5 23.1 46.25 28.75 49.95 35.2 49.95 41.5 49.95 47.2 46.15 52.85 42.4 56.7 35.75 M 40.2 40.1 Q 38.1 42.2 35.2 42.2 32.2 42.2 30.1 40.1 28.1 38.05 28.1 35.1 28.1 32.2 30.2 30.1 32.3 28 35.2 28 38.1 28 40.2 30.1 42.2 32.1 42.2 35.1 42.2 38.05 40.2 40.1 Z"
         id="path28" /></g><g
       id="Layer0_28_FILL"><path
         fill="#000000"
         fill-opacity="0.00392156862745098"
         stroke="none"
         d=" M 0 0 L 0 70 70 70 70 0 0 0 Z"
         id="path29" /></g><g
       id="Layer0_29_FILL"><path
         fill="#FFFFFF"
         stroke="none"
         d=" M 56.7 35.75 Q 57.05 35.1 56.7 34.3 52.95 27.55 47.2 23.85 41.55 20.15 35.2 20.15 28.9 20.15 23.15 23.95 17.45 27.7 13.6 34.3 12.95 35.1 13.6 35.75 17.4 42.5 23.1 46.25 28.75 49.95 35.2 49.95 41.5 49.95 47.2 46.15 52.85 42.4 56.7 35.75 M 40.2 40.1 Q 38.1 42.2 35.2 42.2 32.2 42.2 30.1 40.1 28.1 38.05 28.1 35.1 28.1 32.2 30.2 30.1 32.3 28 35.2 28 38.1 28 40.2 30.1 42.2 32.1 42.2 35.1 42.2 38.05 40.2 40.1 Z"
         id="path30" /></g><g
       id="Layer0_30_FILL"><path
         fill="#000000"
         fill-opacity="0.00392156862745098"
         stroke="none"
         d=" M 0 0 L 0 70 70 70 70 0 0 0 Z"
         id="path31" /></g><g
       id="Layer0_31_FILL"><path
         fill="#FFFFFF"
         stroke="none"
         d=" M 56.7 35.75 Q 57.05 35.1 56.7 34.3 52.95 27.55 47.2 23.85 41.55 20.15 35.2 20.15 28.9 20.15 23.15 23.95 17.45 27.7 13.6 34.3 12.95 35.1 13.6 35.75 17.4 42.5 23.1 46.25 28.75 49.95 35.2 49.95 41.5 49.95 47.2 46.15 52.85 42.4 56.7 35.75 M 40.2 40.1 Q 38.1 42.2 35.2 42.2 32.2 42.2 30.1 40.1 28.1 38.05 28.1 35.1 28.1 32.2 30.2 30.1 32.3 28 35.2 28 38.1 28 40.2 30.1 42.2 32.1 42.2 35.1 42.2 38.05 40.2 40.1 Z"
         id="path32" /></g><g
       id="Layer0_32_FILL"><path
         fill="#000000"
         fill-opacity="0.00392156862745098"
         stroke="none"
         d=" M 0 0 L 0 70 70 70 70 0 0 0 Z"
         id="path33" /></g><g
       id="Layer0_33_FILL"><path
         fill="#FFFFFF"
         stroke="none"
         d=" M 56.7 35.75 Q 57.05 35.1 56.7 34.3 52.95 27.55 47.2 23.85 41.55 20.15 35.2 20.15 28.9 20.15 23.15 23.95 17.45 27.7 13.6 34.3 12.95 35.1 13.6 35.75 17.4 42.5 23.1 46.25 28.75 49.95 35.2 49.95 41.5 49.95 47.2 46.15 52.85 42.4 56.7 35.75 M 40.2 40.1 Q 38.1 42.2 35.2 42.2 32.2 42.2 30.1 40.1 28.1 38.05 28.1 35.1 28.1 32.2 30.2 30.1 32.3 28 35.2 28 38.1 28 40.2 30.1 42.2 32.1 42.2 35.1 42.2 38.05 40.2 40.1 Z"
         id="path34" /></g><g
       id="Layer0_34_FILL"><path
         fill="#000000"
         fill-opacity="0.00392156862745098"
         stroke="none"
         d=" M 0 0 L 0 70 70 70 70 0 0 0 Z"
         id="path35" /></g><g
       id="Layer0_35_FILL"><path
         fill="#FFFFFF"
         stroke="none"
         d=" M 56.7 35.75 Q 57.05 35.1 56.7 34.3 52.95 27.55 47.2 23.85 41.55 20.15 35.2 20.15 28.9 20.15 23.15 23.95 17.45 27.7 13.6 34.3 12.95 35.1 13.6 35.75 17.4 42.5 23.1 46.25 28.75 49.95 35.2 49.95 41.5 49.95 47.2 46.15 52.85 42.4 56.7 35.75 M 40.2 40.1 Q 38.1 42.2 35.2 42.2 32.2 42.2 30.1 40.1 28.1 38.05 28.1 35.1 28.1 32.2 30.2 30.1 32.3 28 35.2 28 38.1 28 40.2 30.1 42.2 32.1 42.2 35.1 42.2 38.05 40.2 40.1 Z"
         id="path36" /></g><g
       id="Layer0_36_FILL"><path
         fill="#000000"
         fill-opacity="0.00392156862745098"
         stroke="none"
         d=" M 0 0 L 0 70 70 70 70 0 0 0 Z"
         id="path37" /></g><g
       id="Layer0_37_FILL"><path
         fill="#FFFFFF"
         stroke="none"
         d=" M 56.7 35.75 Q 57.05 35.1 56.7 34.3 52.95 27.55 47.2 23.85 41.55 20.15 35.2 20.15 28.9 20.15 23.15 23.95 17.45 27.7 13.6 34.3 12.95 35.1 13.6 35.75 17.4 42.5 23.1 46.25 28.75 49.95 35.2 49.95 41.5 49.95 47.2 46.15 52.85 42.4 56.7 35.75 M 40.2 40.1 Q 38.1 42.2 35.2 42.2 32.2 42.2 30.1 40.1 28.1 38.05 28.1 35.1 28.1 32.2 30.2 30.1 32.3 28 35.2 28 38.1 28 40.2 30.1 42.2 32.1 42.2 35.1 42.2 38.05 40.2 40.1 Z"
         id="path38" /></g><g
       id="Layer0_38_FILL"><path
         fill="#000000"
         fill-opacity="0.00392156862745098"
         stroke="none"
         d=" M 0 0 L 0 70 70 70 70 0 0 0 Z"
         id="path39" /></g><g
       id="Layer0_39_FILL"><path
         fill="#FFFFFF"
         stroke="none"
         d=" M 56.7 35.75 Q 57.05 35.1 56.7 34.3 52.95 27.55 47.2 23.85 41.55 20.15 35.2 20.15 28.9 20.15 23.15 23.95 17.45 27.7 13.6 34.3 12.95 35.1 13.6 35.75 17.4 42.5 23.1 46.25 28.75 49.95 35.2 49.95 41.5 49.95 47.2 46.15 52.85 42.4 56.7 35.75 M 40.2 40.1 Q 38.1 42.2 35.2 42.2 32.2 42.2 30.1 40.1 28.1 38.05 28.1 35.1 28.1 32.2 30.2 30.1 32.3 28 35.2 28 38.1 28 40.2 30.1 42.2 32.1 42.2 35.1 42.2 38.05 40.2 40.1 Z"
         id="path40" /></g><g
       id="Layer0_40_FILL"><path
         fill="#000000"
         fill-opacity="0.00392156862745098"
         stroke="none"
         d=" M 0 0 L 0 70 70 70 70 0 0 0 Z"
         id="path41" /></g><g
       id="Layer0_41_FILL"><path
         fill="#FFFFFF"
         stroke="none"
         d=" M 56.7 35.75 Q 57.05 35.1 56.7 34.3 52.95 27.55 47.2 23.85 41.55 20.15 35.2 20.15 28.9 20.15 23.15 23.95 17.45 27.7 13.6 34.3 12.95 35.1 13.6 35.75 17.4 42.5 23.1 46.25 28.75 49.95 35.2 49.95 41.5 49.95 47.2 46.15 52.85 42.4 56.7 35.75 M 40.2 40.1 Q 38.1 42.2 35.2 42.2 32.2 42.2 30.1 40.1 28.1 38.05 28.1 35.1 28.1 32.2 30.2 30.1 32.3 28 35.2 28 38.1 28 40.2 30.1 42.2 32.1 42.2 35.1 42.2 38.05 40.2 40.1 Z"
         id="path42" /></g><g
       id="Layer0_42_FILL"><path
         fill="#000000"
         fill-opacity="0.00392156862745098"
         stroke="none"
         d=" M 0 0 L 0 70 70 70 70 0 0 0 Z"
         id="path43" /></g><g
       id="Layer0_43_FILL"><path
         fill="#FFFFFF"
         stroke="none"
         d=" M 56.7 35.75 Q 57.05 35.1 56.7 34.3 52.95 27.55 47.2 23.85 41.55 20.15 35.2 20.15 28.9 20.15 23.15 23.95 17.45 27.7 13.6 34.3 12.95 35.1 13.6 35.75 17.4 42.5 23.1 46.25 28.75 49.95 35.2 49.95 41.5 49.95 47.2 46.15 52.85 42.4 56.7 35.75 M 40.2 40.1 Q 38.1 42.2 35.2 42.2 32.2 42.2 30.1 40.1 28.1 38.05 28.1 35.1 28.1 32.2 30.2 30.1 32.3 28 35.2 28 38.1 28 40.2 30.1 42.2 32.1 42.2 35.1 42.2 38.05 40.2 40.1 Z"
         id="path44" /></g><g
       id="Layer0_44_FILL"><path
         fill="#000000"
         fill-opacity="0.00392156862745098"
         stroke="none"
         d=" M 0 0 L 0 70 70 70 70 0 0 0 Z"
         id="path45" /></g><g
       id="Layer0_45_FILL"><path
         fill="#FFFFFF"
         stroke="none"
         d=" M 56.7 35.75 Q 57.05 35.1 56.7 34.3 52.95 27.55 47.2 23.85 41.55 20.15 35.2 20.15 28.9 20.15 23.15 23.95 17.45 27.7 13.6 34.3 12.95 35.1 13.6 35.75 17.4 42.5 23.1 46.25 28.75 49.95 35.2 49.95 41.5 49.95 47.2 46.15 52.85 42.4 56.7 35.75 M 40.2 40.1 Q 38.1 42.2 35.2 42.2 32.2 42.2 30.1 40.1 28.1 38.05 28.1 35.1 28.1 32.2 30.2 30.1 32.3 28 35.2 28 38.1 28 40.2 30.1 42.2 32.1 42.2 35.1 42.2 38.05 40.2 40.1 Z"
         id="path46" /></g><g
       id="Layer0_46_FILL"><path
         fill="#000000"
         fill-opacity="0.00392156862745098"
         stroke="none"
         d=" M 0 0 L 0 70 70 70 70 0 0 0 Z"
         id="path47" /></g><g
       id="Layer0_47_FILL"><path
         fill="#FFFFFF"
         stroke="none"
         d=" M 56.7 35.75 Q 57.05 35.1 56.7 34.3 52.95 27.55 47.2 23.85 41.55 20.15 35.2 20.15 28.9 20.15 23.15 23.95 17.45 27.7 13.6 34.3 12.95 35.1 13.6 35.75 17.4 42.5 23.1 46.25 28.75 49.95 35.2 49.95 41.5 49.95 47.2 46.15 52.85 42.4 56.7 35.75 M 40.2 40.1 Q 38.1 42.2 35.2 42.2 32.2 42.2 30.1 40.1 28.1 38.05 28.1 35.1 28.1 32.2 30.2 30.1 32.3 28 35.2 28 38.1 28 40.2 30.1 42.2 32.1 42.2 35.1 42.2 38.05 40.2 40.1 Z"
         id="path48" /></g><g
       id="Layer0_48_FILL"><path
         fill="#000000"
         fill-opacity="0.00392156862745098"
         stroke="none"
         d=" M 0 0 L 0 70 70 70 70 0 0 0 Z"
         id="path49" /></g><g
       id="Layer0_49_FILL"><path
         fill="#FFFFFF"
         stroke="none"
         d=" M 56.7 35.75 Q 57.05 35.1 56.7 34.3 52.95 27.55 47.2 23.85 41.55 20.15 35.2 20.15 28.9 20.15 23.15 23.95 17.45 27.7 13.6 34.3 12.95 35.1 13.6 35.75 17.4 42.5 23.1 46.25 28.75 49.95 35.2 49.95 41.5 49.95 47.2 46.15 52.85 42.4 56.7 35.75 M 40.2 40.1 Q 38.1 42.2 35.2 42.2 32.2 42.2 30.1 40.1 28.1 38.05 28.1 35.1 28.1 32.2 30.2 30.1 32.3 28 35.2 28 38.1 28 40.2 30.1 42.2 32.1 42.2 35.1 42.2 38.05 40.2 40.1 Z"
         id="path50" /></g><g
       id="Layer0_50_FILL"><path
         fill="#000000"
         fill-opacity="0.00392156862745098"
         stroke="none"
         d=" M 0 0 L 0 70 70 70 70 0 0 0 Z"
         id="path51" /></g><g
       id="Layer0_51_FILL"><path
         fill="#FFFFFF"
         stroke="none"
         d=" M 56.7 35.75 Q 57.05 35.1 56.7 34.3 52.95 27.55 47.2 23.85 41.55 20.15 35.2 20.15 28.9 20.15 23.15 23.95 17.45 27.7 13.6 34.3 12.95 35.1 13.6 35.75 17.4 42.5 23.1 46.25 28.75 49.95 35.2 49.95 41.5 49.95 47.2 46.15 52.85 42.4 56.7 35.75 M 40.2 40.1 Q 38.1 42.2 35.2 42.2 32.2 42.2 30.1 40.1 28.1 38.05 28.1 35.1 28.1 32.2 30.2 30.1 32.3 28 35.2 28 38.1 28 40.2 30.1 42.2 32.1 42.2 35.1 42.2 38.05 40.2 40.1 Z"
         id="path52" /></g><g
       id="Layer0_52_FILL"><path
         fill="#000000"
         fill-opacity="0.00392156862745098"
         stroke="none"
         d=" M 0 0 L 0 70 70 70 70 0 0 0 Z"
         id="path53" /></g><g
       id="Layer0_53_FILL"><path
         fill="#FFFFFF"
         stroke="none"
         d=" M 56.7 35.75 Q 57.05 35.1 56.7 34.3 52.95 27.55 47.2 23.85 41.55 20.15 35.2 20.15 28.9 20.15 23.15 23.95 17.45 27.7 13.6 34.3 12.95 35.1 13.6 35.75 17.4 42.5 23.1 46.25 28.75 49.95 35.2 49.95 41.5 49.95 47.2 46.15 52.85 42.4 56.7 35.75 M 40.2 40.1 Q 38.1 42.2 35.2 42.2 32.2 42.2 30.1 40.1 28.1 38.05 28.1 35.1 28.1 32.2 30.2 30.1 32.3 28 35.2 28 38.1 28 40.2 30.1 42.2 32.1 42.2 35.1 42.2 38.05 40.2 40.1 Z"
         id="path54" /></g><g
       id="Layer0_54_FILL"><path
         fill="#000000"
         fill-opacity="0.00392156862745098"
         stroke="none"
         d=" M 0 0 L 0 70 70 70 70 0 0 0 Z"
         id="path55" /></g><g
       id="Layer0_55_FILL"><path
         fill="#FFFFFF"
         stroke="none"
         d=" M 56.7 35.75 Q 57.05 35.1 56.7 34.3 52.95 27.55 47.2 23.85 41.55 20.15 35.2 20.15 28.9 20.15 23.15 23.95 17.45 27.7 13.6 34.3 12.95 35.1 13.6 35.75 17.4 42.5 23.1 46.25 28.75 49.95 35.2 49.95 41.5 49.95 47.2 46.15 52.85 42.4 56.7 35.75 M 40.2 40.1 Q 38.1 42.2 35.2 42.2 32.2 42.2 30.1 40.1 28.1 38.05 28.1 35.1 28.1 32.2 30.2 30.1 32.3 28 35.2 28 38.1 28 40.2 30.1 42.2 32.1 42.2 35.1 42.2 38.05 40.2 40.1 Z"
         id="path56" /></g><g
       id="Layer0_0_FILL-0"><path
         fill="#FFFFFF"
         stroke="none"
         d=" M 59.45 44.75 Q 58.6 43.85 54.85 45.6 51.05 47.35 45.3 46.05 39.55 44.8 39.35 42.75 39.25 41.75 39.3 40.7 39.1 36.4 50.1 34.3 61.05 32.2 61.05 26.05 61.05 19.9 53.55 15.55 46.05 11.25 35.45 11.25 35.3 11.25 35.2 11.25 35.1 11.25 34.95 11.25 24.35 11.25 16.85 15.55 9.35 19.9 9.35 26.05 9.35 27.8 11.45 30.6 10.0142578125 33.5474609375 9.35 36 8.672265625 38.505859375 8.55 41.15 8.48671875 43.7880859375 8.65 45.2 8.8546875 46.6072265625 9.65 51.55 10.4982421875 56.5048828125 16.4 55.25 22.3486328125 54.044921875 25.35 52.35 28.35 50.65 28 51.4 27.65 52.1 26.95 53.15 25.95 54.55 25.95 55.65 25.95 56.7 26.9 55.95 27.9 55.15 28.75 55.45 29.65 55.8 31.65 56.85 33.6 57.85 35.25 57.85 36.8 57.85 38.75 56.85 40.75 55.8 41.65 55.45 42.5 55.15 43.5 55.95 44.45 56.7 44.45 55.65 44.45 54.55 43.45 53.15 42.75 52.1 42.4 51.4 42.05 50.65 44.75 52.35 47.5 54.05 51.5 55.4 55.5 56.75 57.9 51.2 60.25 45.6 59.45 44.75 M 15.15 45.8 Q 9.5 43.05 11.65 37.7 13.15 33.85 19.2 34.3 31.3 36.4 31.1 40.7 31.15 41.75 31.05 42.75 30.85 44.8 25.25 46.55 20.1 48.15 15.15 45.8 Z"
         id="path1-9" /></g><g
       id="Layer0_0_FILL-09"><path
         fill="#FFFFFF"
         stroke="none"
         d=" M 60.6 44.7 Q 59.344921875 43.85 55.2 45.6 51.0515625 47.35 45.3 46.05 39.55 44.8 39.35 42.75 39.25 41.75 39.3 40.7 39.1 36.4 50.1 34.3 61.05 32.2 61.05 26.05 61.05 19.9 53.55 15.55 46.05 11.25 35.45 11.25 35.3 11.25 35.2 11.25 35.1 11.25 34.95 11.25 24.35 11.25 16.85 15.55 9.35 19.9 9.35 26.05 9.35 27.8 11.45 30.6 8.8234375 33.45703125 7.85 35.75 6.8693359375 38.0865234375 6.6 40.1 6.333984375 42.1638671875 6.6 44.55 6.870703125 46.9435546875 8.45 51.75 10.080078125 56.5537109375 16.25 55.4 22.41171875 54.2982421875 24.3 53.5 26.2044921875 52.7423828125 25.95 53.4 25.693359375 54.1107421875 25.55 55.05 25.401171875 55.99375 25.65 56.35 25.94921875 56.704296875 26.9 55.9 27.8998046875 55.148046875 28.75 55.45 29.65 55.8 31.65 56.85 33.6 57.85 35.25 57.85 36.8 57.85 38.75 56.85 40.75 55.8 41.65 55.45 42.5052734375 55.147265625 43.35 56.05 44.232421875 57.0068359375 44.75 56.5 45.315625 56.051953125 44.95 54.6 44.60078125 53.1345703125 45.05 53.25 45.5388671875 53.36796875 46.35 53.75 47.21171875 54.18671875 51.35 55.45 55.4953125 56.752734375 58.7 51.15 61.905859375 45.5990234375 60.6 44.7 M 15.15 45.8 Q 9.5 43.05 11.65 37.7 13.15 33.85 19.2 34.3 31.3 36.4 31.1 40.7 31.15 41.75 31.05 42.75 30.85 44.8 25.25 46.55 20.1 48.15 15.15 45.8 Z"
         id="path1-4" /></g></defs><g
     transform="matrix( 1, 0, 0, 1, 0,0) "
     id="g56"><use
       xlink:href="#Layer0_0_FILL"
       id="use56" /></g><g
     transform="matrix( 1, 0, 0, 1, 25.5,-1.85) "
     id="g57"><use
       xlink:href="#Layer0_1_FILL"
       id="use57" /></g><g
     transform="matrix( 1, 0, 0, 1, 0,70) "
     id="g58"
     style="fill:#ff0000;fill-opacity:0"><use
       xlink:href="#Layer0_2_FILL"
       id="use58"
       style="fill:#ff0000;fill-opacity:0" /></g><g
     transform="matrix( 1, 0, 0, 1, 70,70) "
     id="g60"><use
       xlink:href="#Layer0_4_FILL"
       id="use60" /></g><g
     transform="matrix( 1, 0, 0, 1, 70,70) "
     id="g61"><use
       xlink:href="#Layer0_5_FILL"
       id="use61" /></g><g
     transform="matrix( 1, 0, 0, 1, 140,70) "
     id="g62"><use
       xlink:href="#Layer0_6_FILL"
       id="use62" /></g><g
     transform="matrix( 1, 0, 0, 1, 140,70) "
     id="g63"><use
       xlink:href="#Layer0_7_FILL"
       id="use63" /></g><g
     transform="matrix( 1, 0, 0, 1, 0,140) "
     id="g64"><use
       xlink:href="#Layer0_8_FILL"
       id="use64" /></g><g
     transform="matrix( 1, 0, 0, 1, 0,140) "
     id="g65"><use
       xlink:href="#Layer0_9_FILL"
       id="use65" /></g><g
     transform="matrix( 1, 0, 0, 1, 70,140) "
     id="g66"><use
       xlink:href="#Layer0_10_FILL"
       id="use66" /></g><g
     transform="matrix( 1, 0, 0, 1, 70,140) "
     id="g67"><use
       xlink:href="#Layer0_11_FILL"
       id="use67" /></g><g
     transform="matrix( 1, 0, 0, 1, 140,140) "
     id="g68"><use
       xlink:href="#Layer0_12_FILL"
       id="use68" /></g><g
     transform="matrix( 1, 0, 0, 1, 140,140) "
     id="g69"><use
       xlink:href="#Layer0_13_FILL"
       id="use69" /></g><g
     transform="matrix( 1, 0, 0, 1, 0,210) "
     id="g70"><use
       xlink:href="#Layer0_14_FILL"
       id="use70" /></g><g
     transform="matrix( 1, 0, 0, 1, 0,210) "
     id="g71"><use
       xlink:href="#Layer0_15_FILL"
       id="use71" /></g><g
     transform="matrix( 1, 0, 0, 1, 70,210) "
     id="g72"><use
       xlink:href="#Layer0_16_FILL"
       id="use72" /></g><g
     transform="matrix( 1, 0, 0, 1, 70,210) "
     id="g73"><use
       xlink:href="#Layer0_17_FILL"
       id="use73" /></g><g
     transform="matrix( 1, 0, 0, 1, 140,210) "
     id="g74"><use
       xlink:href="#Layer0_18_FILL"
       id="use74" /></g><g
     transform="matrix( 1, 0, 0, 1, 140,210) "
     id="g75"><use
       xlink:href="#Layer0_19_FILL"
       id="use75" /></g><g
     transform="matrix( 1, 0, 0, 1, 0,280) "
     id="g76"><use
       xlink:href="#Layer0_20_FILL"
       id="use76" /></g><g
     transform="matrix( 1, 0, 0, 1, 0,280) "
     id="g77"><use
       xlink:href="#Layer0_21_FILL"
       id="use77" /></g><g
     transform="matrix( 1, 0, 0, 1, 70,280) "
     id="g78"><use
       xlink:href="#Layer0_22_FILL"
       id="use78" /></g><g
     transform="matrix( 1, 0, 0, 1, 70,280) "
     id="g79"><use
       xlink:href="#Layer0_23_FILL"
       id="use79" /></g><g
     transform="matrix( 1, 0, 0, 1, 140,280) "
     id="g80"><use
       xlink:href="#Layer0_24_FILL"
       id="use80" /></g><g
     transform="matrix( 1, 0, 0, 1, 140,280) "
     id="g81"><use
       xlink:href="#Layer0_25_FILL"
       id="use81" /></g><g
     transform="matrix( 1, 0, 0, 1, 0,350) "
     id="g82"><use
       xlink:href="#Layer0_26_FILL"
       id="use82" /></g><g
     transform="matrix( 1, 0, 0, 1, 0,350) "
     id="g83"><use
       xlink:href="#Layer0_27_FILL"
       id="use83" /></g><g
     transform="matrix( 1, 0, 0, 1, 70,350) "
     id="g84"><use
       xlink:href="#Layer0_28_FILL"
       id="use84" /></g><g
     transform="matrix( 1, 0, 0, 1, 70,350) "
     id="g85"><use
       xlink:href="#Layer0_29_FILL"
       id="use85" /></g><g
     transform="matrix( 1, 0, 0, 1, 140,350) "
     id="g86"><use
       xlink:href="#Layer0_30_FILL"
       id="use86" /></g><g
     transform="matrix( 1, 0, 0, 1, 140,350) "
     id="g87"><use
       xlink:href="#Layer0_31_FILL"
       id="use87" /></g><g
     transform="matrix( 1, 0, 0, 1, 0,420) "
     id="g88"><use
       xlink:href="#Layer0_32_FILL"
       id="use88" /></g><g
     transform="matrix( 1, 0, 0, 1, 0,420) "
     id="g89"><use
       xlink:href="#Layer0_33_FILL"
       id="use89" /></g><g
     transform="matrix( 1, 0, 0, 1, 70,420) "
     id="g90"><use
       xlink:href="#Layer0_34_FILL"
       id="use90" /></g><g
     transform="matrix( 1, 0, 0, 1, 70,420) "
     id="g91"><use
       xlink:href="#Layer0_35_FILL"
       id="use91" /></g><g
     transform="matrix( 1, 0, 0, 1, 140,420) "
     id="g92"><use
       xlink:href="#Layer0_36_FILL"
       id="use92" /></g><g
     transform="matrix( 1, 0, 0, 1, 140,420) "
     id="g93"><use
       xlink:href="#Layer0_37_FILL"
       id="use93" /></g><g
     transform="matrix( 1, 0, 0, 1, 0,490) "
     id="g94"><use
       xlink:href="#Layer0_38_FILL"
       id="use94" /></g><g
     transform="matrix( 1, 0, 0, 1, 0,490) "
     id="g95"><use
       xlink:href="#Layer0_39_FILL"
       id="use95" /></g><g
     transform="matrix( 1, 0, 0, 1, 70,490) "
     id="g96"><use
       xlink:href="#Layer0_40_FILL"
       id="use96" /></g><g
     transform="matrix( 1, 0, 0, 1, 70,490) "
     id="g97"><use
       xlink:href="#Layer0_41_FILL"
       id="use97" /></g><g
     transform="matrix( 1, 0, 0, 1, 140,490) "
     id="g98"><use
       xlink:href="#Layer0_42_FILL"
       id="use98" /></g><g
     transform="matrix( 1, 0, 0, 1, 140,490) "
     id="g99"><use
       xlink:href="#Layer0_43_FILL"
       id="use99" /></g><g
     transform="matrix( 1, 0, 0, 1, 0,560) "
     id="g100"><use
       xlink:href="#Layer0_44_FILL"
       id="use100" /></g><g
     transform="matrix( 1, 0, 0, 1, 0,560) "
     id="g101"><use
       xlink:href="#Layer0_45_FILL"
       id="use101" /></g><g
     transform="matrix( 1, 0, 0, 1, 70,560) "
     id="g102"><use
       xlink:href="#Layer0_46_FILL"
       id="use102" /></g><g
     transform="matrix( 1, 0, 0, 1, 70,560) "
     id="g103"><use
       xlink:href="#Layer0_47_FILL"
       id="use103" /></g><g
     transform="matrix( 1, 0, 0, 1, 140,560) "
     id="g104"><use
       xlink:href="#Layer0_48_FILL"
       id="use104" /></g><g
     transform="matrix( 1, 0, 0, 1, 140,560) "
     id="g105"><use
       xlink:href="#Layer0_49_FILL"
       id="use105" /></g><g
     transform="matrix( 1, 0, 0, 1, 0,630) "
     id="g106"><use
       xlink:href="#Layer0_50_FILL"
       id="use106" /></g><g
     transform="matrix( 1, 0, 0, 1, 0,630) "
     id="g107"><use
       xlink:href="#Layer0_51_FILL"
       id="use107" /></g><g
     transform="matrix( 1, 0, 0, 1, 70,630) "
     id="g108"><use
       xlink:href="#Layer0_52_FILL"
       id="use108" /></g><g
     transform="matrix( 1, 0, 0, 1, 70,630) "
     id="g109"><use
       xlink:href="#Layer0_53_FILL"
       id="use109" /></g><g
     transform="matrix( 1, 0, 0, 1, 140,630) "
     id="g110"><use
       xlink:href="#Layer0_54_FILL"
       id="use110" /></g><g
     transform="matrix( 1, 0, 0, 1, 140,630) "
     id="g111"><use
       xlink:href="#Layer0_55_FILL"
       id="use111" /></g><use
     xlink:href="#Layer0_0_FILL-09"
     id="use1"
     transform="matrix(0.93547786,0,0,0.89694267,1.5789568,72.112341)" /></svg>
